<?xml version="1.0" encoding="utf-8" ?>
<svg xmlns="http://www.w3.org/2000/svg" xmlns:xlink="http://www.w3.org/1999/xlink" width="382" height="109">
	<path fill="#FFEFD5" d="M38.3644 10.5635C40.2799 10.4579 42.7842 10.8514 44.5965 11.5008C48.5687 12.9244 51.0247 16.6464 51.4464 20.7521C51.8725 24.9001 50.6236 29.1537 49.7123 33.1694C48.6666 37.7779 47.6896 42.3951 46.5883 46.9916C45.075 53.308 42.7739 60.4936 43.0447 67.0558C43.1176 68.8208 43.5575 70.1647 44.3016 71.749C45.1551 72.0582 45.9945 72.3263 46.9069 72.3811C51.0984 72.6329 54.86 69.7281 56.9189 66.2778C57.8495 64.7183 58.4876 63 58.9956 61.2622C60.6164 55.7176 61.5352 49.8368 62.7535 44.1819C64.3433 36.8036 66.1798 29.4468 67.5959 22.0363C68.0245 19.7934 68.4942 13.8449 70.207 12.4799C71.6898 11.2982 81.2649 11.9585 83.4754 12.17C83.7557 17.0941 82.3029 22.6814 81.23 27.474L75.8756 51.0285C74.9001 55.319 73.5473 59.7249 73.1763 64.1128C73.0454 65.6605 73.0349 67.4643 73.7186 68.8882C74.0768 69.6342 74.6663 70.315 75.4701 70.5844C77.8403 71.379 81.2807 69.3412 83.3243 68.3317C84.5044 67.7487 85.9961 66.8676 87.3327 67.3212C88.0336 67.7612 88.1761 68.2818 88.4134 69.0411C88.266 69.6649 88.1126 70.3559 87.8285 70.9338C85.9073 74.8422 80.7155 78.0908 76.7316 79.4573C72.9302 80.7611 68.9505 80.9715 65.2726 79.1685C61.9097 77.5199 60.3924 74.944 59.2123 71.5132L59.1805 71.5579C55.9122 76.1374 50.6486 79.363 45.1096 80.2741C41.2969 80.9012 37.2678 80.298 34.0843 77.9972C25.1243 71.5217 29.8673 56.529 31.7778 47.7066C32.9067 42.4934 33.9167 37.2781 35.1556 32.0862C36.0957 28.1464 37.7789 22.9202 37.0833 18.9077C36.9895 18.3667 36.7323 17.92 36.2734 17.6113C35.5623 17.133 34.5949 17.1777 33.791 17.3389C31.475 17.8031 29.2692 19.2788 27.9758 21.2472C25.3079 25.3074 26.8379 30.3221 27.7442 34.6731C28.3612 37.6354 28.8282 40.8161 27.0421 43.5047C25.7322 45.4766 24.0389 45.9426 21.8252 46.3768C20.2933 46.6772 18.6925 46.4836 17.3846 45.5924C15.5674 44.3543 14.6222 42.192 14.2389 40.0892C13.1503 34.1171 15.2322 26.6449 18.6505 21.7147C23.7214 14.4011 29.9476 12.0767 38.3644 10.5635Z"/>
	<path fill="#FFEFD5" d="M122.512 11.124C127.462 10.7249 132.591 11.3588 136.706 14.3316C140.683 17.2048 142.994 21.4826 143.753 26.2848C144.325 29.9025 143.887 33.5889 141.678 36.6036C139.868 39.0743 137.524 40.3943 134.515 40.8555C133.255 40.2431 132.104 40.0453 131.087 39.0055C125.036 32.8241 133.088 28.1226 133.119 22.2331C133.126 20.8969 132.522 19.7945 131.583 18.8744C130.624 17.9348 129.579 17.6568 128.264 17.6793C124.283 17.7475 120.603 19.9071 117.905 22.7195C110.518 30.4196 106.988 44.584 107.219 55.177C107.305 59.1082 107.791 65.3294 110.88 68.2357C112.364 69.6319 114.554 70.1994 116.552 70.113C118.273 70.0385 120.187 69.3347 121.678 68.4924C130.255 63.6476 127.824 52.7447 130.877 49.4279C131.866 48.9429 132.936 48.9245 134.015 48.931C135.857 48.942 142.154 48.4727 143.414 49.8192C143.998 50.4432 144.063 51.382 144.025 52.1931C143.836 56.2599 142.56 60.2064 141.732 64.1644C140.88 68.2417 138.659 82.8256 135.865 85.3833L135.909 85.9089C134.896 88.3882 133.041 90.7463 131.154 92.6264C126.567 97.1972 120.199 99.3542 113.797 99.3394C108.65 99.3275 102.673 97.9968 98.9306 94.2077C96.1873 91.43 95.7634 88.41 95.7858 84.6793L95.8569 84.5444C96.8118 82.7515 97.9906 81.9103 99.9115 81.3293C108.054 78.8663 106.653 90.5442 111.627 93.1408C112.881 93.7955 114.48 93.8232 115.81 93.4059C118.554 92.5446 120.478 90.0871 121.764 87.6382C123.289 84.7371 126.345 75.6762 125.414 72.6682C125.318 72.997 125.187 73.3325 124.99 73.6147C123.105 76.3095 119.029 77.9137 115.917 78.4783C110.737 79.4184 105.171 78.7672 100.775 75.6973C95.9078 72.2987 93.5387 67.0821 92.5399 61.373C90.4209 49.2599 93.5357 35.2264 100.609 25.173C106.154 17.2925 113.003 12.782 122.512 11.124Z"/>
	<path fill="#FFEFD5" d="M328.84 30.8749C330.665 30.8848 339.694 30.5076 340.84 31.4649C342.279 36.6874 334.755 57.3224 335.087 65.3561C335.129 66.3638 335.374 67.5644 336.164 68.2652C336.744 68.779 337.479 68.9505 338.237 68.8911C346.406 68.2514 348.268 53.7027 349.375 47.5952L351.454 36.3736C351.674 35.1975 351.894 32.4637 352.659 31.5839C353.046 31.139 353.52 30.9607 354.096 30.9247C355.908 30.8111 364.982 30.5152 366.079 31.4774C366.983 34.4719 365.82 39.2098 365.233 42.2686C363.944 48.9736 362.36 55.6337 361.033 62.336C359.632 69.4114 358.655 76.9503 356.186 83.7266C355.152 86.5631 353.446 90.3719 350.859 92.1246C350.859 92.2479 350.851 92.3191 350.791 92.4296C349.25 95.2724 343.837 97.1658 340.949 97.9931C335.178 99.6466 328.799 99.3645 323.481 96.4119C320 94.4787 317.461 91.4526 317.473 87.3083C317.475 86.4043 317.875 85.4453 317.616 84.5685C317.611 84.5538 317.606 84.5393 317.602 84.5247C318.655 83.9239 319.29 82.9297 320.473 82.3995C321.934 81.7446 323.825 81.2925 325.365 81.9C327.65 82.8012 328.75 86.7952 329.672 88.9294C330.332 90.4585 331.037 92.0965 332.712 92.7414C333.809 93.1638 335.007 93.0745 336.072 92.603C338.72 91.4321 340.343 88.4156 341.341 85.8426C342.273 83.4415 345.283 73.3901 344.301 71.1695C344.253 71.4188 344.186 71.6621 344.084 71.8949C343.232 73.8304 338.496 76.4607 336.53 77.2311C333.587 78.3841 330.656 78.2547 327.781 76.9917C325.296 75.9002 323.314 74.3069 322.318 71.7001C319.888 65.3374 323.712 50.1622 324.923 43.2651C325.453 40.2451 325.945 34.7348 327.156 32.1047C327.494 31.3721 328.131 31.142 328.84 30.8749Z"/>
	<path fill="#FFEFD5" d="M315.927 41.2784C316.031 41.3699 316.113 41.4727 316.188 41.5891C317.924 44.3057 317.469 53.3054 316.788 56.5344C315.163 64.2469 311.215 71.9208 304.456 76.3051C299.367 79.6062 293.025 81.109 287.042 79.8222C282.698 78.8881 278.769 76.5219 276.34 72.7505C272.629 66.9878 272.278 58.5733 273.709 52.0443C275.26 44.97 279.175 37.786 285.396 33.8168C290.92 30.3262 297.602 29.1679 303.979 30.5959C306.083 31.0666 310.008 32.2099 311.223 34.1713C311.232 34.1861 311.241 34.2012 311.25 34.2162C313.114 35.6293 315.588 38.6266 315.903 41.0284C315.914 41.1117 315.921 41.1946 315.927 41.2784ZM288.52 71.7088C290.024 72.1181 291.748 72.7888 293.296 72.2721C295.332 71.8582 296.499 70.4712 297.596 68.8121C301.597 62.7624 304.605 49.7407 303.139 42.6349C302.8 40.9921 302.082 39.3694 300.643 38.4082C299.328 37.5302 297.95 37.6977 296.472 37.8748C292.115 40.5884 289.917 45.5216 288.79 50.3471C287.625 55.3375 286.51 61.8085 287.006 66.9131C287.139 68.2785 288.7 70.563 288.52 71.7088Z"/>
	<path fill="#FFEFD5" d="M174.431 24.6239C177.72 24.4557 180.981 24.6651 184.268 24.7482C184.399 24.9406 184.507 25.1434 184.559 25.3727C185.084 27.7018 182.112 42.0174 180.852 43.9475C183.291 43.7806 193.678 43.3293 195.447 44.2593C195.867 44.766 196.141 45.0557 196.125 45.7591C196.096 47.11 195.592 49.5934 194.586 50.5191C193.032 51.9481 181.44 51.2673 178.823 51.178L178.864 51.2776C178.947 51.4745 179.011 51.6743 179.046 51.8851C179.318 53.5162 176.21 69.1258 175.3 70.3644C175.463 70.6849 175.46 71.0713 175.429 71.4231C175.258 73.3413 174.198 77.6976 172.668 78.9518C169.804 79.4034 162.419 79.6344 159.793 78.715C159.585 78.4611 159.453 78.3585 159.416 78.025C158.871 73.1159 165.049 49.3985 166.435 43.1523C167.122 40.0529 169.278 27.0397 170.64 25.3467C171.733 24.6309 173.161 24.7104 174.431 24.6239Z"/>
	<path fill="#FFEFD5" d="M245.369 9.37492C253.558 9.00336 261.925 10.8306 269.906 12.4465C273.622 13.1989 277.302 14.0889 281.1 14.29C283.095 14.3956 285.214 14.4802 287.194 14.1674C290.235 13.6867 293.278 12.6063 296.346 12.3709C297.007 12.3202 297.432 12.5978 297.913 13.0084C298.36 13.7305 298.397 14.335 298.214 15.1583C297.658 17.6627 294.98 21.3328 292.841 22.6847C284.524 27.9424 272.978 24.2326 264.418 21.3462C261.667 20.4184 258.88 19.2813 256.052 18.6314C252.717 17.0847 247.463 16.3654 243.808 16.7495C241.117 17.0322 238.362 18.0528 236.631 20.2247C233.259 24.4544 236.987 29.6018 237.489 34.1081C237.717 36.1476 237.193 37.9402 235.895 39.5341C234.828 40.8448 233.294 41.7781 231.595 41.9447C229.777 42.1229 228.043 41.3145 226.677 40.1699C224.335 38.2088 223.416 35.2701 223.145 32.3239C222.645 26.7689 224.364 21.2418 227.925 16.9498C232.206 11.8366 238.96 9.94828 245.369 9.37492Z"/>
	<path fill="#FFEFD5" d="M170.321 10.1247C179.101 9.50296 186.562 11.0601 194.471 14.8787C196.786 15.9961 199.086 17.6319 201.56 18.2904C205.824 19.4256 209.957 18.5246 214.227 19.0025C214.922 19.0802 215.438 19.128 215.884 19.7138C216.296 20.2544 216.43 21.0388 216.321 21.6966C215.95 23.9437 213.623 26.2672 211.838 27.5583C199.539 36.452 187.012 19.3856 175.047 17.4371C175.015 17.4099 174.981 17.3758 174.944 17.3545C173.393 16.4576 169.751 17.1811 168.095 17.5565C152.351 21.1233 165.578 34.4751 160.879 41.8263C159.411 44.1227 156.945 44.8875 154.445 45.4538C153.365 45.1228 152.134 44.821 151.205 44.1659C149.152 42.719 147.959 39.9746 147.535 37.568C146.533 31.8856 148.506 25.2243 151.769 20.5667C156.022 14.4941 163.181 11.3765 170.321 10.1247Z"/>
	<path fill="#FFEFD5" d="M254.274 24.8749C258.514 24.6753 262.761 24.7291 266.994 25.0361C267.028 25.1388 267.053 25.2419 267.079 25.3466C267.273 26.1186 267.246 26.7988 267.135 27.5835C266.061 35.1801 263.951 42.8271 262.386 50.3485C261.114 56.4596 259.896 62.5692 258.52 68.6594C257.77 71.9757 257.133 75.4492 255.901 78.6243C255.422 79.14 254.71 79.1279 254.051 79.2013C249.929 79.3002 245.805 79.1692 241.684 79.0757C242.102 78.299 242.151 73.4523 242.417 72.019C243.782 64.6721 245.727 57.3896 247.228 50.0635C248.434 44.1726 250.29 31.3694 252.445 26.4486C252.852 25.5192 253.351 25.2396 254.274 24.8749Z"/>
</svg>
